<svg fill="#ffffff" version="1.1" xmlns="http://www.w3.org/2000/svg" xmlns:xlink="http://www.w3.org/1999/xlink" x="0px" y="0px" viewBox="0 0 1000 1000" enable-background="new 0 0 1000 1000" xml:space="preserve">
<metadata> Svg Vector Icons : http://www.onlinewebfonts.com/icon </metadata>
<g><g transform="translate(0.000000,511.000000) scale(0.100000,-0.100000)"><path d="M1487.3,4229.3C829.6,4026.7,267.7,3846,239.4,3826.4c-28.3-17.4-69.7-58.8-89.3-91.5c-37-56.6-39.2-274.4-45.7-3946.1L100-4096.4l43.6-93.7c34.8-67.5,71.9-104.6,139.4-137.2c50.1-26.1,106.7-45.7,124.1-45.7c17.4,0,542.3,156.8,1167.3,350.6l1136.8,348.4l1145.5-352.8L5000-4379.5l1149.9,352.8l1147.7,352.8l1097.6-337.5c603.2-187.3,1128.1-344.1,1165.1-350.6c95.8-17.4,248.3,65.3,300.5,163.3c37,71.9,39.2,241.7,39.2,3952.7c0,3647.8-2.2,3880.8-39.2,3950.5c-19.6,41.4-63.2,93.7-93.6,115.4c-67.5,50.1-2352,760-2458.7,764.4c-43.6,2.2-544.4-141.6-1193.4-341.9l-1115-344.1l-1134.6,350.6c-625,193.8-1145.5,350.6-1158.6,350.6C2691.6,4597.3,2142.7,4431.8,1487.3,4229.3z M2560.9,2212.6c0-1657.3,0-1690-43.6-1744.4c-54.4-71.9-54.4-172,0-263.5c43.6-69.7,43.6-104.5,39.2-1674.7l-6.5-1602.8l-903.8-281c-496.5-152.4-906-278.8-908.1-278.8c-4.4,0-6.5,1570.2-6.5,3491v3488.8l888.5,276.6c487.8,150.3,899.4,274.4,914.7,276.6C2554.4,3902.6,2560.9,3552,2560.9,2212.6z M3776.1,3630.4c487.8-150.3,932.1-289.6,990.9-307.1l102.4-34.8V1102c0-2064.5-2.2-2188.7-37-2199.6c-135-43.6-180.7-104.6-180.7-237.4c0-58.8,19.6-93.6,91.5-163.3c50.1-47.9,100.2-87.1,108.9-87.1c8.7,0,17.4-470.4,17.4-1045.4c0-784-6.5-1045.3-26.1-1045.3c-21.8,0-747,222.1-1720.4,524.8l-278.8,87.1v1541.9v1544l65.3,10.9c71.9,15.3,152.4,124.1,152.4,206.9c0,76.2-54.4,165.5-139.4,230.8l-78.4,58.8V2217c0,1141.2,6.5,1685.6,21.8,1685.6C2878.8,3902.6,3288.3,3780.6,3776.1,3630.4z M7156,2889.9V1875.1l-91.5-122c-76.2-100.2-93.6-139.4-93.6-215.6c0-102.3,74.1-204.7,145.9-204.7c37,0,39.2-80.6,34.8-2201.7l-6.5-2201.7l-980-302.7c-537.9-165.5-993.1-302.7-1006.1-302.7c-21.8,0-28.3,220-28.3,1023.6V-1629l98,132.9c106.7,145.9,121.9,217.8,63.2,326.7c-17.4,37-61,76.2-98,89.3l-63.2,21.8V1115v2175.6l180.8,54.4c98,30.5,542.3,167.7,984.4,304.9c444.3,137.2,818.8,250.4,834.1,250.4C7149.5,3902.6,7156,3687,7156,2889.9z M8369,3626l899.4-276.6V-143.7c0-2785.4-6.5-3491-26.1-3482.3c-23.9,6.5-1652.9,511.8-1785.8,551c-37,10.9-39.2,137.2-39.2,2267.1c0,2240.9,0,2254,45.7,2317.2c71.9,102.3,76.2,191.6,10.9,287.5l-56.6,82.8v1010.5c0,762.2,6.5,1012.7,26.1,1012.7C7456.5,3902.6,7874.7,3778.5,8369,3626z"/><path d="M1591.8,1476.6c-137.2-65.3-211.3-143.7-287.5-307.1c-47.9-106.7-58.8-161.2-58.8-294c2.2-359.3,228.7-635.9,522.7-640.3c204.7-2.2,424.7,191.6,490,429c41.4,150.3,15.2,420.3-52.3,551c-93.6,182.9-283.1,313.6-453,313.6C1724.6,1528.8,1652.7,1504.9,1591.8,1476.6z"/><path d="M3549.6-265.7c-80.6-80.5-95.8-176.4-45.7-265.7c26.1-45.7,294-263.5,381.1-311.4c84.9-45.7,209.1-28.3,270,37c135,141.6,100.2,254.8-130.7,433.4c-206.9,159-243.9,180.8-331,180.8C3643.2-191.6,3601.9-213.4,3549.6-265.7z"/><path d="M6524.4,980c-30.5-17.4-113.3-106.7-185.1-202.5c-113.3-150.3-130.7-187.3-130.7-267.9c0-80.6,10.9-104.5,71.9-159c69.7-63.2,169.9-82.7,254.8-50.1c19.6,8.7,93.6,93.6,167.7,187.3c165.5,219.9,187.3,320.1,91.5,429C6722.6,997.4,6607.2,1023.6,6524.4,980z"/><path d="M5773.1-47.9c-80.6-34.8-311.4-335.4-328.8-426.8c-28.3-137.2,74-261.3,217.8-261.3c117.6,0,137.2,15.3,287.5,213.4c143.7,189.5,161.2,248.3,117.6,361.5C6027.9-56.6,5882,0,5773.1-47.9z"/><path d="M7774.5,2345.5c-47.9-74-28.3-119.8,154.6-363.7l161.2-213.4l-161.2-108.9c-176.4-122-206.9-178.6-152.4-280.9c82.7-161.2,200.4-172,396.4-32.7c76.2,54.4,148.1,95.8,156.8,91.5c10.9-4.3,87.1-93.6,169.9-202.5c169.9-222.1,235.2-270,326.7-237.4c50.1,17.4,63.1,34.8,67.5,104.5c6.5,76.2-8.7,104.5-161.2,302.7c-126.3,165.5-159,222.1-137.2,235.2c17.4,8.7,91.5,61,167.7,115.4c119.8,89.3,135,108.9,135,176.4c0,52.3-19.6,95.8-58.8,139.4c-100.2,108.9-148.1,106.7-341.9-19.6c-93.6-61-178.6-104.5-187.3-93.6c-6.5,8.7-80.6,102.3-161.2,206.9c-80.6,104.5-163.3,200.3-187.3,213.4C7889.9,2417.3,7813.7,2404.3,7774.5,2345.5z"/></g></g>
</svg>